<svg width="512" height="46" viewBox="0 0 512 46" fill="none" xmlns="http://www.w3.org/2000/svg">
<path d="M62.5407 0.552795C70.0456 0.552795 70.0456 0.552795 72.5212 2.78407C73.2487 3.7778 73.9515 4.79003 74.6319 5.81664C75.4072 6.89341 76.1835 7.9694 76.9609 9.04465C77.3386 9.58305 77.7163 10.1215 78.1055 10.6762C79.7108 12.9136 81.4646 15.015 83.2313 17.1261C91.7264 27.47 91.7264 27.47 91.7264 29.7385H93.3941V0.552795H100.899V44.7482C94.228 44.7482 94.228 44.7482 91.8632 42.5756C91.1359 41.5955 90.4311 40.5986 89.7459 39.5886C88.9631 38.5148 88.1803 37.4409 87.3974 36.3671C87.0092 35.8182 86.621 35.2694 86.2211 34.7038C84.4264 32.1945 82.5227 29.7731 80.6254 27.3411C77.9246 23.8388 75.2682 20.3069 72.6775 16.7222C71.7395 15.436 71.7395 15.436 70.0456 14.7287V44.7482H62.5407V0.552795Z" fill="#17334F"/>
<path d="M133.681 0.187995C134.305 0.18477 134.929 0.181545 135.571 0.178223C140.669 0.284504 144.391 1.50003 148.43 4.7222C147.827 7.51093 146.915 9.17728 145.094 11.3932C140.925 9.72545 140.925 9.72545 139.101 8.78734C134.478 7.3491 130.079 7.30486 125.655 9.30851C121.384 13.281 119.013 16.7445 118.775 22.7026C118.994 27.0863 119.94 29.5784 122.58 33.074C126.909 36.9913 129.553 37.5071 135.277 37.4095C138.403 37.185 140.2 36.82 142.593 34.7417C143.27 32.1614 143.348 29.9367 143.427 27.2368H132.586V20.5658H150.932C151.933 37.5856 151.933 37.5856 149.192 41.214C146.98 42.5017 145.073 43.3018 142.593 43.9144C142.064 44.0588 141.535 44.2033 140.99 44.3521C135.204 45.6749 126.667 45.9515 121.173 43.4453C116.667 40.5663 112.97 36.2207 111.303 31.1C110.165 24.8127 109.255 16.5893 112.573 10.872C113.723 9.42578 113.723 9.42578 115.075 8.0577C115.598 7.52024 116.122 6.98278 116.661 6.42904C121.858 1.52193 126.662 0.212974 133.681 0.187995Z" fill="#15324D"/>
<path d="M160.104 0.552747H168.443C168.455 1.87752 168.455 1.87752 168.467 3.22905C168.5 6.52093 168.555 9.81217 168.616 13.1036C168.639 14.5254 168.657 15.9472 168.669 17.3691C168.687 19.4189 168.726 21.4675 168.769 23.5169C168.77 24.1477 168.771 24.7786 168.772 25.4285C168.889 29.702 169.811 32.1746 172.612 35.5755C174.758 36.6485 176.367 36.5497 178.762 36.5658C179.56 36.5776 180.357 36.5894 181.179 36.6016C183.584 36.3983 184.826 36.1318 186.788 34.7417C189.512 31.1991 189.68 27.9135 189.717 23.5983C189.732 22.9379 189.747 22.2775 189.762 21.5971C189.807 19.4987 189.835 17.4006 189.863 15.3019C189.891 13.8747 189.92 12.4474 189.949 11.0202C190.02 7.53114 190.076 4.04216 190.124 0.552747C191.357 0.530322 192.591 0.5141 193.824 0.500629C194.511 0.490955 195.198 0.481281 195.906 0.471313C197.629 0.552747 197.629 0.552747 198.463 1.38662C198.687 5.15495 198.689 8.92835 198.709 12.7026C198.723 14.588 198.759 16.4722 198.796 18.3573C198.878 25.8217 198.902 33.8569 193.643 39.7364C192.247 41.0127 190.89 42.0735 189.29 43.0804C188.814 43.3911 188.337 43.7017 187.847 44.0218C183.003 45.8811 175.526 45.5725 170.586 44.1749C165.539 41.483 162.229 36.569 160.104 31.4062C159.784 28.9859 159.811 26.6062 159.86 24.1684C159.863 23.4906 159.867 22.8129 159.871 22.1146C159.885 19.9651 159.916 17.8161 159.948 15.6668C159.96 14.2031 159.972 12.7395 159.982 11.2759C160.01 7.70124 160.053 4.12711 160.104 0.552747Z" fill="#20415A"/>
<path d="M17.0423 0.344328C18.6402 0.337879 18.6402 0.337879 20.2704 0.331299C23.2531 0.545927 25.5776 1.14004 28.3518 2.22055V3.8883L31.6873 5.55605L28.3518 11.3932C27.9068 11.1524 27.4618 10.9116 27.0033 10.6635C22.1755 8.25801 17.9058 7.21978 12.5081 8.05768L10.0065 9.72543C9.79787 12.2968 9.79787 12.2968 10.0065 14.7287C13.7342 16.3758 17.494 17.8461 21.316 19.2629C30.0102 22.6007 30.0102 22.6007 32.8339 26.1945C33.9443 30.192 33.7742 33.5542 32.4169 37.3997C29.4226 41.8912 26.0101 44.2132 20.8469 45.5821C13.9368 45.898 7.0728 45.2641 1.66775 40.5788C0.638437 38.771 0.638437 38.771 0 37.2433L3.33551 33.074C5.68962 34.0013 7.94867 34.9636 10.215 36.0968C14.3804 37.6241 18.585 38.2595 22.7394 36.3932C23.2156 36.1234 23.6918 35.8536 24.1824 35.5756V29.7385C19.9742 27.9746 15.8204 26.3516 11.4137 25.1521C7.5372 24.0263 4.59483 22.6347 2.42345 19.0675C0.9541 15.4954 1.05515 11.8292 1.66775 8.05768C3.34057 4.90227 5.38224 2.89188 8.54072 1.24661C11.4481 0.369456 14.0079 0.332105 17.0423 0.344328Z" fill="#122D49"/>
<path d="M392.756 0.552775C395.662 0.0675976 398.203 -0.0848866 401.094 0.552775C403.528 2.77051 404.926 5.43132 406.463 8.31825C407.293 9.77559 408.126 11.2317 408.961 12.6863C409.314 13.337 409.667 13.9876 410.031 14.658C411.068 16.3421 412.147 17.5704 413.603 18.898L414.463 17.4257C415.324 15.9695 416.199 14.5217 417.085 13.0805C418.135 11.3393 419.138 9.56878 420.101 7.77753C421.664 5.06394 423.07 2.77891 425.277 0.552775C428.496 -0.272319 431.209 -0.0906201 434.45 0.552775C434.45 2.22053 434.45 2.22053 433.328 3.38299C432.873 3.82491 432.417 4.26684 431.948 4.72216C431.228 5.73002 430.538 6.75901 429.873 7.80359C429.298 8.70007 429.298 8.70007 428.712 9.61466C428.121 10.5466 428.121 10.5466 427.518 11.4974C426.74 12.716 425.962 13.9342 425.182 15.1521C424.794 15.7711 424.405 16.39 424.005 17.0277C422.775 18.898 422.775 18.898 421.389 20.6951C417.589 25.7445 417.026 29.8064 417.042 36.0446C417.025 36.8857 417.008 37.7269 416.99 38.5935C416.951 40.6448 416.942 42.6966 416.938 44.7482H409.433C409.479 43.6486 409.526 42.5489 409.573 41.416C409.732 30.1888 407.452 23.4704 400.63 14.633C398.818 12.2656 397.174 9.80635 395.518 7.32802C394.982 6.55623 394.445 5.78444 393.893 4.98926C392.756 3.0544 392.756 3.0544 392.756 0.552775Z" fill="#1E9D93"/>
<path d="M208.469 0.552795H216.808V37.2433H239.322V44.7482H208.469V0.552795Z" fill="#18506A"/>
<path d="M354.397 0.552795H389.42V8.05768H376.078V43.9144H368.573V8.05768H354.397V0.552795Z" fill="#1A958C"/>
<path d="M503.661 0.552795H512V44.7482H503.661V0.552795Z" fill="#27A495"/>
<path d="M42.5277 0.552795H50.8665V44.7482H42.5277V0.552795Z" fill="#0D2A47"/>
<path d="M338.554 0.552795H346.892C346.913 6.71288 346.928 12.8729 346.938 19.033C346.942 21.1305 346.948 23.2279 346.955 25.3254C346.965 28.3328 346.97 31.3402 346.974 34.3476C346.978 35.2918 346.983 36.2359 346.987 37.2087C346.987 38.0768 346.987 38.9449 346.987 39.8392C346.989 40.6077 346.991 41.3762 346.993 42.1679C346.892 43.9144 346.892 43.9144 346.059 44.7482H338.554V0.552795Z" fill="#299A99"/>
<path d="M309.653 0.935852C315.674 0.86534 320.255 0.822167 324.907 5.12335C328.297 8.89455 329.045 11.7142 328.902 16.7513C328.324 20.2472 326.686 22.9174 324.378 25.5696C321.876 27.2374 321.876 27.2366 319.374 27.2366C321.989 32.2257 324.918 36.8158 328.251 41.3577C329.381 43.0806 329.381 43.0808 329.381 44.7484C326.137 45.3924 323.427 45.5953 320.208 44.7484C317.357 41.7489 315.52 38.3509 313.537 34.7415L312.105 32.8528C311.036 31.4066 311.036 31.4063 311.036 29.7386H301.029V44.7484H292.691V1.38702L305.615 1.07452C307.614 1.0062 307.615 1.00556 309.653 0.935852ZM309.909 7.75714C309.194 7.78842 308.499 7.81858 307.805 7.84894L301.029 8.05792V22.2337C302.739 22.3136 304.45 22.3879 306.161 22.4368C306.879 22.4562 307.576 22.4756 308.274 22.4944C310.294 22.5981 312.269 22.6442 314.29 22.5648C317.234 22.008 318.516 20.4227 320.208 18.0638C320.972 15.7709 320.972 15.7705 320.208 11.3929C316.849 8.38174 314.254 7.69288 309.909 7.75714Z" fill="#249293"/>
<path d="M263.974 0.50061C264.662 0.508133 265.352 0.515321 266.061 0.523071C266.593 0.532746 267.126 0.542401 267.675 0.552368C269.886 5.55168 272.095 10.5517 274.306 15.5514C275.057 17.2506 275.809 18.9499 276.56 20.649C277.643 23.0976 278.725 25.5469 279.807 27.9957C280.308 29.127 280.309 29.1268 280.819 30.2809C281.441 31.6882 282.061 33.0966 282.68 34.5055C283.215 35.7203 283.756 36.9326 284.305 38.1412C285.364 40.5087 286.019 42.1206 286.019 44.7487H277.681C277.121 43.2558 276.566 41.7612 276.013 40.2662C275.703 39.4343 275.394 38.6019 275.075 37.7448C274.345 35.5755 274.346 35.5755 274.346 33.9078L253.498 34.7418L249.329 44.7487H241.824C242.152 40.7279 242.895 38.292 245.039 34.8073C246.151 32.7883 246.918 30.7556 247.714 28.5914C249.913 22.6939 252.423 16.9447 254.958 11.1842C255.372 10.2403 255.785 9.29636 256.212 8.32385C256.602 7.44067 256.992 6.55704 257.394 5.64709C257.748 4.84727 258.101 4.04732 258.465 3.22327C259.72 0.574291 259.721 0.573946 261.892 0.471313C262.923 0.485823 262.923 0.485812 263.974 0.50061ZM262.671 11.3932C262.371 12.0775 262.079 12.7417 261.788 13.4059C261.397 14.3162 261.018 15.2001 260.639 16.0836C259.065 19.7143 258.335 22.3979 257.668 26.403H269.342C269.342 23.2408 268.808 21.47 267.563 18.6246C267.318 18.0799 267.079 17.5508 266.841 17.0221C266.013 15.1429 265.18 13.2663 264.339 11.3932H262.671Z" fill="#256E81"/>
<path d="M480.104 3.88873C481.237 6.44673 482.419 8.95831 483.7 11.4454C484.788 13.5837 485.708 15.7006 486.514 17.96C487.418 20.4757 488.503 22.7861 489.746 25.1524C491.692 28.9504 493.252 32.8358 494.749 36.8262C494.971 37.4158 495.194 38.0059 495.423 38.6133C496.99 42.8614 496.99 42.8615 496.99 44.7481H488.651C488.092 43.2554 487.537 41.7606 486.983 40.2657C486.674 39.434 486.365 38.6021 486.046 37.7452C485.316 35.576 485.316 35.5756 485.316 33.9083H464.469L463.636 38.0772C462.875 40.334 461.999 42.5281 461.134 44.7481H452.795C455.51 35.805 459.53 27.3758 463.427 18.8985C464.811 15.8766 466.044 12.8441 467.173 9.71881C468.358 6.60378 469.765 3.5876 471.14 0.552795H478.645L480.104 3.88873ZM474.475 11.3936C473.489 14.0239 472.329 16.4402 470.983 18.8985C469.37 21.7251 469.371 21.7259 470.306 26.4034H481.146C481.146 23.0679 481.146 23.0676 480.322 20.8233C479.947 20.0093 479.583 19.2188 479.219 18.4288C477.941 15.6022 476.827 13.4422 474.475 11.3936Z" fill="#20A195"/>
</svg>
