<svg width="1028" height="92" viewBox="0 0 1028 92" fill="none" xmlns="http://www.w3.org/2000/svg">
<path d="M125.57 1.10986C140.638 1.10986 140.638 1.10986 145.609 5.58984C147.07 7.58507 148.481 9.61743 149.847 11.6787C151.403 13.8406 152.962 16.001 154.523 18.1599C155.281 19.2409 156.04 20.3219 156.821 21.4357C160.044 25.928 163.566 30.1472 167.113 34.3859C184.169 55.1545 184.169 55.1545 184.169 59.7092H187.518V1.10986H202.586V89.846C189.192 89.846 189.192 89.846 184.444 85.4838C182.984 83.516 181.569 81.5143 180.193 79.4865C178.621 77.3304 177.049 75.1743 175.478 73.0183C174.698 71.9163 173.919 70.8142 173.116 69.6788C169.512 64.6405 165.69 59.7788 161.881 54.8957C156.458 47.8638 151.124 40.7724 145.923 33.5749C144.039 30.9926 144.039 30.9926 140.638 29.5724V89.846H125.57V1.10986Z" fill="#17334F"/>
<path d="M268.406 0.377408C269.659 0.370934 270.911 0.364459 272.202 0.357788C282.437 0.571181 289.91 3.01172 298.02 9.48124C296.808 15.0805 294.977 18.4262 291.323 22.8754C282.951 19.5268 282.951 19.5268 279.289 17.6433C270.007 14.7556 261.175 14.6667 252.291 18.6897C243.717 26.6657 238.955 33.6197 238.478 45.5826C238.917 54.3841 240.818 59.3879 246.117 66.4063C254.81 74.2715 260.118 75.3073 271.611 75.1112C277.887 74.6604 281.495 73.9276 286.3 69.7549C287.659 64.574 287.817 60.1072 287.974 54.6864H266.209V41.2923H303.042C305.053 75.4648 305.053 75.4648 299.55 82.75C295.109 85.3354 291.28 86.9419 286.3 88.1718C285.238 88.4618 284.176 88.7518 283.082 89.0506C271.465 91.7066 254.323 92.2619 243.292 87.23C234.246 81.4496 226.822 72.7244 223.475 62.443C221.19 49.8193 219.364 33.3082 226.026 21.829C228.335 18.9251 228.335 18.9251 231.049 16.1783C232.1 15.0992 233.151 14.0201 234.234 12.9083C244.667 3.0557 254.314 0.427562 268.406 0.377408Z" fill="#15324D"/>
<path d="M321.459 1.10985H338.202C338.225 3.76974 338.225 3.76974 338.249 6.48337C338.316 13.0928 338.426 19.701 338.549 26.3097C338.596 29.1643 338.632 32.0191 338.656 34.874C338.692 38.9896 338.77 43.1027 338.856 47.2176C338.858 48.4842 338.86 49.7508 338.862 51.0557C339.097 59.6361 340.949 64.6006 346.573 71.4291C350.882 73.5833 354.111 73.385 358.921 73.4173C360.522 73.441 362.124 73.4647 363.774 73.4892C368.602 73.081 371.096 72.546 375.036 69.7548C380.504 62.642 380.843 56.045 380.915 47.3811C380.945 46.0551 380.975 44.7291 381.006 43.3629C381.097 39.1498 381.154 34.9371 381.21 30.7235C381.265 27.8578 381.323 24.9921 381.383 22.1265C381.525 15.1212 381.637 8.11594 381.733 1.10985C384.209 1.06483 386.686 1.03226 389.162 1.00521C390.541 0.985787 391.921 0.966363 393.341 0.94635C396.801 1.10985 396.801 1.10985 398.475 2.78412C398.927 10.3502 398.93 17.9265 398.97 25.5044C398.998 29.2901 399.072 33.0731 399.146 36.8581C399.309 51.8451 399.359 67.9784 388.798 79.7832C385.996 82.3459 383.271 84.4757 380.059 86.4975C379.102 87.1212 378.146 87.7449 377.161 88.3876C367.435 92.1207 352.423 91.5012 342.505 88.6949C332.371 83.2901 325.726 73.4237 321.459 63.0577C320.816 58.1983 320.871 53.4202 320.969 48.5256C320.976 47.1648 320.983 45.8041 320.99 44.4021C321.018 40.0861 321.081 35.7715 321.145 31.4559C321.17 28.5173 321.193 25.5786 321.214 22.6399C321.269 15.4627 321.356 8.2865 321.459 1.10985Z" fill="#20415A"/>
<path d="M34.2178 0.691322C37.4261 0.678372 37.4261 0.678372 40.6991 0.665161C46.6878 1.09609 51.3551 2.28896 56.9251 4.45842V7.80696L63.6222 11.1555L56.9251 22.8754C56.0316 22.3919 55.1381 21.9085 54.2175 21.4104C44.5242 16.5805 35.9514 14.4959 25.114 16.1783L20.0912 19.5268C19.6723 24.6897 19.6723 24.6897 20.0912 29.5724C27.5758 32.8796 35.1247 35.8315 42.7985 38.6763C60.2548 45.3779 60.2548 45.3779 65.9243 52.5936C68.1538 60.6199 67.8122 67.3705 65.0871 75.0916C59.075 84.1098 52.2234 88.7717 41.8567 91.5203C27.9824 92.1547 14.2009 90.8817 3.34853 81.4747C1.28186 77.845 1.28186 77.845 0 74.7776L6.69707 66.4063C11.4237 68.2683 15.9594 70.2004 20.5098 72.4755C28.8731 75.5421 37.3152 76.8178 45.6565 73.0707C46.6126 72.529 47.5687 71.9872 48.5537 71.4291V59.7092C40.1045 56.1678 31.7644 52.909 22.9165 50.5008C15.1333 48.2403 9.22555 45.4462 4.86584 38.2839C1.91565 31.1118 2.11854 23.7507 3.34853 16.1783C6.70724 9.84282 10.8065 5.80632 17.1482 2.50293C22.9856 0.741773 28.1252 0.666779 34.2178 0.691322Z" fill="#122D49"/>
<path d="M788.58 1.10987C794.415 0.135723 799.518 -0.170436 805.323 1.10987C810.209 5.56266 813.016 10.9051 816.101 16.7015C817.768 19.6276 819.44 22.5511 821.117 25.4718C821.826 26.7782 822.535 28.0846 823.265 29.4306C825.347 32.8118 827.514 35.278 830.437 37.9437L832.163 34.9876C833.892 32.0637 835.649 29.1569 837.428 26.2631C839.537 22.7671 841.551 19.2123 843.484 15.6158C846.622 10.1674 849.444 5.57952 853.876 1.10987C860.341 -0.546765 865.786 -0.181948 872.293 1.10987C872.293 4.4584 872.293 4.4584 870.042 6.7924C869.127 7.67971 868.213 8.56701 867.27 9.4812C865.826 11.5048 864.44 13.5708 863.104 15.6681C861.95 17.4681 861.95 17.4681 860.773 19.3044C859.586 21.1756 859.586 21.1756 858.376 23.0846C856.814 25.5313 855.251 27.9773 853.687 30.4226C852.906 31.6654 852.126 32.9081 851.322 34.1885C848.853 37.9437 848.853 37.9437 846.071 41.5518C838.439 51.6901 837.31 59.8456 837.343 72.3709C837.308 74.0597 837.274 75.7485 837.238 77.4885C837.16 81.6071 837.141 85.7267 837.134 89.846H822.065C822.158 87.6381 822.251 85.4303 822.346 83.1555C822.665 60.6134 818.087 47.1242 804.389 29.3803C800.752 24.6271 797.451 19.6893 794.126 14.7133C793.049 13.1637 791.972 11.6141 790.862 10.0175C788.58 6.13267 788.58 6.13267 788.58 1.10987Z" fill="#1E9D93"/>
<path d="M418.567 1.10986H435.309V74.7776H480.515V89.846H418.567V1.10986Z" fill="#18506A"/>
<path d="M711.563 1.10986H781.883V16.1783H755.094V88.1718H740.026V16.1783H711.563V1.10986Z" fill="#1A958C"/>
<path d="M1011.26 1.10986H1028V89.846H1011.26V1.10986Z" fill="#27A495"/>
<path d="M85.3876 1.10986H102.13V89.846H85.3876V1.10986Z" fill="#0D2A47"/>
<path d="M679.752 1.10986H696.495C696.536 13.4782 696.567 25.8464 696.587 38.2147C696.596 42.426 696.607 46.6373 696.621 50.8486C696.642 56.8869 696.651 62.9251 696.659 68.9635C696.667 70.8592 696.676 72.7549 696.685 74.7081C696.685 76.451 696.685 78.1939 696.685 79.9897C696.689 81.5326 696.693 83.0755 696.696 84.6652C696.495 88.1718 696.495 88.1718 694.821 89.846H679.752V1.10986Z" fill="#299A99"/>
<path d="M621.725 1.87988C633.813 1.7383 643.012 1.65099 652.352 10.2871C659.158 17.8591 660.661 23.52 660.374 33.6338C659.213 40.6529 655.923 46.0128 651.29 51.3379C646.267 54.6864 646.267 54.6865 641.244 54.6865C646.494 64.7037 652.373 73.9187 659.066 83.0381C661.336 86.4978 661.336 86.4982 661.336 89.8467C654.822 91.1398 649.381 91.5472 642.919 89.8467C637.194 83.8243 633.504 77.002 629.524 69.7549L626.647 65.9619C624.502 63.0582 624.502 63.0581 624.502 59.71H604.41V89.8467H587.668V2.78418L613.619 2.15625C617.632 2.01907 617.632 2.01984 621.725 1.87988ZM622.24 15.5752C620.803 15.638 619.408 15.6988 618.013 15.7598L604.411 16.1787V44.6406C607.844 44.8011 611.279 44.9516 614.715 45.0498C616.157 45.0887 617.556 45.1263 618.956 45.1641C623.011 45.3721 626.978 45.4643 631.036 45.3047C636.945 44.1868 639.522 41.0057 642.919 36.2695C644.453 31.6654 644.453 31.6649 642.919 22.875C636.174 16.8288 630.963 15.4462 622.24 15.5752Z" fill="#249293"/>
<path d="M530.01 1.00494C531.394 1.02005 532.777 1.03528 534.203 1.05084C535.271 1.07027 536.339 1.08942 537.44 1.10944C541.879 11.1473 546.318 21.186 550.755 31.2247C552.264 34.6364 553.772 38.0485 555.281 41.46C557.455 46.3764 559.629 51.2932 561.802 56.21C562.807 58.4814 562.806 58.4817 563.831 60.7989C565.08 63.6245 566.325 66.4516 567.567 69.2803C568.641 71.7195 569.728 74.1543 570.829 76.5811C572.956 81.3343 574.274 84.5693 574.274 89.8458H557.531C556.408 86.8486 555.293 83.8482 554.182 80.8467C553.561 79.1765 552.94 77.5061 552.299 75.7852C550.834 71.4295 550.834 71.4287 550.834 68.0801L508.977 69.7549L500.606 89.8458H485.537C486.197 81.7727 487.688 76.8829 491.993 69.8858C494.225 65.8323 495.764 61.7524 497.362 57.4073C501.778 45.5659 506.818 34.0234 511.908 22.4571C512.739 20.5614 513.569 18.6651 514.425 16.712C515.208 14.9388 515.992 13.1658 516.799 11.3389C517.509 9.73266 518.219 8.12571 518.95 6.47076C521.471 1.15249 521.471 1.15242 525.831 0.94635C527.9 0.975481 527.9 0.975222 530.01 1.00494ZM527.394 22.8751L525.621 26.9171C524.837 28.7449 524.075 30.519 523.313 32.293C520.154 39.5825 518.689 44.9706 517.349 53.0118H540.788C540.788 46.6629 539.717 43.1075 537.217 37.3946C536.724 36.3006 536.244 35.2387 535.765 34.1768C534.103 30.4038 532.432 26.636 530.743 22.8751H527.394Z" fill="#256E81"/>
<path d="M963.959 7.80713C966.234 12.9434 968.608 17.9862 971.18 22.98C973.364 27.2733 975.212 31.5236 976.83 36.0601C978.644 41.1111 980.824 45.7495 983.318 50.5005C987.227 58.1264 990.357 65.9286 993.363 73.9409C993.81 75.1246 994.256 76.3083 994.716 77.5278C997.863 86.0578 997.863 86.0578 997.863 89.8462H981.12C979.997 86.849 978.883 83.8487 977.771 80.8472C977.15 79.1767 976.529 77.5058 975.889 75.7847C974.424 71.429 974.424 71.4291 974.424 68.0806H932.566L930.893 76.4517C929.366 80.9829 927.607 85.3888 925.869 89.8462H909.127C914.578 71.8899 922.651 54.9651 930.474 37.9438C933.254 31.8766 935.73 25.789 937.995 19.5142C940.374 13.2597 943.2 7.20327 945.961 1.10986H961.029L963.959 7.80713ZM952.658 22.8755C950.678 28.1568 948.349 33.0079 945.647 37.9438C942.409 43.6202 942.409 43.6202 944.287 53.0122H966.052C966.052 46.3152 966.052 46.3151 964.397 41.8091C963.644 40.1749 962.912 38.5886 962.181 37.0024C959.616 31.3272 957.381 26.9888 952.658 22.8755Z" fill="#20A195"/>
</svg>
